<svg id="Layer_1" data-name="Layer 1" xmlns="http://www.w3.org/2000/svg" viewBox="0 0 30 30"><defs><style>.cls-1{fill:#445d7b;}.cls-2{fill:#fff;}</style></defs><title>twitter</title><ellipse class="cls-1" cx="15.17" cy="15" rx="13.75" ry="13.83"/><path class="cls-2" d="M7.6,20.36a7.23,7.23,0,0,0,5-1.45,3.6,3.6,0,0,1-3.23-2.43h1.42A3.74,3.74,0,0,1,8.18,13l1.44.4c-1.48-1.75-1.79-3.19-.93-4.66a10,10,0,0,0,7.17,3.62,3.5,3.5,0,0,1,1.32-3.59A3.45,3.45,0,0,1,21.56,9a.54.54,0,0,0,.63.15l1.74-.64c-.06.48-.37.9-1.29,1.82l1.73-.46.06.06a17,17,0,0,1-1.31,1.31,1,1,0,0,0-.38.85A9.87,9.87,0,0,1,8,20.61Z"/></svg>